<?xml version="1.0" standalone="no"?>
<!DOCTYPE svg PUBLIC "-//W3C//DTD SVG 20010904//EN"
 "http://www.w3.org/TR/2001/REC-SVG-20010904/DTD/svg10.dtd">
<svg version="1.0" xmlns="http://www.w3.org/2000/svg"
 width="512.000000pt" height="512.000000pt" viewBox="0 0 512.000000 512.000000"
 preserveAspectRatio="xMidYMid meet">

<g transform="translate(0.000000,512.000000) scale(0.100000,-0.100000)"
fill="#000000" stroke="none">
<path d="M1519 5106 c-237 -50 -457 -232 -582 -481 -37 -74 -84 -213 -104
-307 -24 -115 -24 -381 0 -496 67 -316 237 -572 468 -704 l58 -33 1 -392 0
-393 300 0 300 0 0 393 1 392 58 34 c228 130 390 370 464 686 17 73 21 123 21
265 0 197 -15 285 -76 447 -110 292 -330 510 -583 578 -83 23 -244 28 -326 11z"/>
<path d="M2888 5099 c-23 -12 -46 -35 -58 -59 -19 -38 -20 -58 -20 -480 l0
-440 150 0 150 0 0 440 c0 422 -1 442 -20 480 -37 73 -127 99 -202 59z"/>
<path d="M3488 5099 c-23 -12 -46 -35 -58 -59 -19 -38 -20 -58 -20 -480 l0
-440 150 0 150 0 0 440 c0 422 -1 442 -20 480 -37 73 -127 99 -202 59z"/>
<path d="M4088 5099 c-23 -12 -46 -35 -58 -59 -19 -38 -20 -58 -20 -480 l0
-440 150 0 150 0 0 440 c0 422 -1 442 -20 480 -37 73 -127 99 -202 59z"/>
<path d="M2810 3698 c0 -70 7 -153 15 -193 30 -139 121 -289 226 -370 103 -78
139 -118 172 -184 l32 -65 3 -293 3 -293 300 0 299 0 0 273 c0 369 11 403 178
536 100 80 158 152 208 256 46 96 64 187 64 333 l0 122 -750 0 -750 0 0 -122z"/>
<path d="M203 1982 c-100 -35 -171 -115 -193 -216 -8 -35 -10 -278 -8 -796 l3
-745 28 -57 c32 -64 80 -111 146 -142 l46 -21 2335 0 2335 0 46 21 c66 31 114
78 146 142 l28 57 0 775 0 775 -28 57 c-32 64 -80 111 -146 142 l-46 21 -2320
2 c-2207 2 -2323 2 -2372 -15z m643 -396 l34 -34 0 -131 c0 -79 4 -131 10
-131 5 0 83 68 172 151 90 83 173 155 186 160 106 42 204 -57 163 -164 -5 -13
-104 -111 -220 -218 -116 -106 -211 -196 -211 -200 0 -3 37 -41 83 -84 285
-272 387 -379 393 -412 18 -95 -93 -177 -179 -131 -12 6 -102 88 -200 182 -98
94 -183 172 -188 174 -5 2 -9 -59 -9 -148 l0 -152 -34 -34 c-30 -30 -40 -34
-86 -34 -46 0 -56 4 -86 34 l-34 34 0 552 0 552 34 34 c30 30 40 34 86 34 46
0 56 -4 86 -34z m1419 19 c84 -21 202 -82 227 -118 42 -59 20 -150 -43 -183
-43 -22 -74 -17 -157 24 -74 36 -81 37 -182 37 -95 0 -110 -3 -160 -28 -73
-38 -135 -99 -173 -172 -29 -56 -32 -67 -32 -160 0 -88 3 -107 27 -157 35 -76
104 -148 175 -183 45 -22 76 -29 139 -33 106 -6 165 13 227 72 58 56 100 71
153 54 71 -24 104 -109 69 -177 -35 -68 -167 -157 -276 -186 -72 -20 -226 -19
-302 1 -218 56 -401 242 -452 456 -19 81 -19 215 0 296 50 212 232 399 446
456 72 20 239 20 314 1z m1003 -1 c15 -9 34 -25 43 -37 25 -34 399 -1035 399
-1068 0 -70 -52 -119 -124 -119 -67 0 -97 31 -141 146 l-37 94 -216 -2 -216
-3 -37 -95 c-46 -114 -72 -140 -141 -140 -82 0 -142 76 -120 152 19 64 383
1012 397 1031 38 55 136 75 193 41z m828 -18 l34 -34 0 -461 0 -461 113 0 c61
0 129 -5 149 -10 87 -25 119 -135 59 -202 l-29 -33 -154 -5 c-84 -3 -190 -3
-235 0 -72 4 -86 8 -108 31 -15 14 -30 43 -35 65 -12 51 -12 997 0 1049 14 61
58 95 121 95 45 0 55 -4 85 -34z"/>
<path d="M3184 1164 c-4 -10 -31 -81 -60 -156 l-52 -138 119 0 c65 0 119 2
119 5 0 8 -110 298 -115 303 -2 3 -8 -4 -11 -14z"/>
</g>
</svg>
