<?xml version="1.0" standalone="no"?>
<!DOCTYPE svg PUBLIC "-//W3C//DTD SVG 20010904//EN"
 "http://www.w3.org/TR/2001/REC-SVG-20010904/DTD/svg10.dtd">
<svg version="1.0" xmlns="http://www.w3.org/2000/svg"
 width="465.000000pt" height="365.000000pt" viewBox="0 0 465.000000 365.000000"
 preserveAspectRatio="xMidYMid meet">

<g transform="translate(0.000000,365.000000) scale(0.100000,-0.100000)"
fill="#000000" stroke="none">
<path d="M2204 3300 c-505 -53 -949 -362 -1179 -820 -104 -206 -150 -411 -150
-660 0 -259 41 -436 155 -665 214 -432 615 -723 1110 -806 106 -18 345 -15
460 5 416 73 785 318 1012 672 84 131 161 322 200 495 31 139 33 445 4 579
-44 208 -119 387 -227 551 -81 122 -282 324 -399 400 -302 199 -644 285 -986
249z m-313 -650 c50 -14 86 -50 99 -100 11 -40 0 -164 -27 -317 l-5 -33 -80 0
-80 0 6 28 c3 15 13 81 22 146 14 108 14 120 0 135 -36 35 -45 0 -97 -360 -27
-189 -49 -354 -49 -365 0 -26 29 -40 47 -22 7 7 22 76 33 153 11 77 23 146 25
153 3 8 28 12 80 12 41 0 75 -2 75 -4 0 -43 -43 -304 -55 -332 -34 -81 -111
-133 -198 -134 -92 0 -150 44 -162 123 -10 65 88 754 114 804 24 48 82 101
119 109 15 3 32 7 37 9 20 7 61 5 96 -5z m1223 -1 c53 -15 93 -59 101 -113 6
-35 -7 -156 -31 -303 l-5 -33 -80 0 c-77 0 -79 1 -75 23 3 12 13 78 22 145 14
107 14 126 2 138 -11 12 -17 12 -31 2 -14 -10 -27 -84 -68 -372 -46 -328 -49
-360 -35 -374 31 -31 46 4 69 164 l22 149 78 3 c62 2 77 0 77 -12 0 -54 -45
-307 -60 -336 -38 -74 -113 -120 -195 -120 -90 0 -146 45 -160 129 -3 20 8
135 25 256 17 121 38 272 46 335 8 63 21 139 30 167 34 123 146 186 268 152z
m-680 -156 c-7 -82 -24 -296 -38 -478 -15 -181 -29 -345 -32 -362 l-5 -33 -76
0 -76 0 6 53 c3 28 9 98 13 155 l7 102 -45 0 c-53 0 -46 14 -78 -160 -30 -167
-19 -151 -108 -148 -61 2 -77 6 -75 18 1 8 45 237 99 508 l97 492 161 0 162 0
-12 -147z m265 90 c-37 -255 -109 -787 -109 -798 0 -11 13 -15 56 -15 l56 0
-6 -57 c-12 -101 0 -93 -152 -93 -132 0 -134 0 -134 23 0 12 29 231 65 487 36
256 65 475 65 487 0 22 3 23 83 23 l84 0 -8 -57z m-955 -1115 c15 -19 17 -33
12 -86 -12 -120 -13 -122 -58 -122 l-40 0 7 68 c4 37 8 72 9 77 0 6 -6 10 -14
10 -12 0 -21 -40 -42 -190 -15 -104 -24 -193 -21 -198 12 -19 27 16 38 85 l11
73 42 3 43 3 -5 -33 c-25 -150 -26 -153 -57 -181 -26 -24 -38 -28 -76 -25 -37
2 -50 9 -67 31 l-20 27 27 200 c28 210 40 250 85 275 38 21 101 13 126 -17z
m639 1 c9 -12 17 -34 17 -51 0 -64 -52 -394 -66 -415 -39 -60 -129 -72 -167
-21 l-20 27 27 203 c16 112 35 216 43 231 29 56 128 72 166 26z m761 10 c22
-17 26 -29 26 -68 0 -27 -3 -63 -6 -80 -6 -28 -10 -31 -46 -31 l-39 0 7 60 c4
40 3 60 -4 60 -15 0 -19 -9 -27 -68 l-7 -53 45 -42 c24 -23 47 -53 50 -67 3
-14 0 -61 -7 -104 -11 -68 -17 -83 -45 -108 -62 -55 -161 -27 -161 46 0 17 3
55 6 84 l7 52 44 0 c43 0 44 -1 39 -27 -15 -78 -17 -101 -8 -107 17 -10 30 18
37 79 l7 60 -46 47 c-44 45 -46 49 -45 105 1 85 18 133 58 160 42 29 80 29
115 2z m-1154 -21 c-1 -81 -40 -492 -48 -500 -5 -5 -22 -8 -38 -6 l-29 3 3 83
c4 83 3 84 -19 80 -20 -2 -26 -12 -36 -63 -7 -33 -15 -70 -18 -82 -5 -19 -12
-23 -46 -23 -37 0 -41 2 -37 23 2 12 26 133 53 270 l49 247 83 0 83 0 0 -32z
m140 28 c0 -2 -13 -100 -30 -217 -16 -118 -30 -220 -30 -226 0 -8 13 -13 30
-13 28 0 30 -2 24 -27 -12 -55 -10 -54 -81 -51 -61 3 -68 5 -67 23 1 11 17
131 35 268 l34 247 42 0 c24 0 43 -2 43 -4z m479 -20 c21 -22 23 -33 19 -95
-3 -54 -9 -78 -27 -102 -17 -22 -20 -34 -12 -42 14 -14 13 -101 -2 -197 l-12
-75 -40 0 c-22 0 -39 5 -39 10 18 125 24 219 15 228 -6 6 -13 8 -16 5 -4 -3
-14 -59 -23 -124 l-17 -119 -40 0 c-37 0 -40 2 -38 25 3 42 64 484 68 498 3 8
27 12 73 12 60 0 71 -3 91 -24z m151 2 c0 -13 -16 -133 -35 -268 -19 -135 -35
-246 -35 -247 0 -2 -18 -3 -40 -3 -28 0 -40 4 -40 14 0 8 16 126 35 263 19
136 35 251 35 256 0 4 18 7 40 7 35 0 40 -3 40 -22z m200 -13 c0 -34 -1 -35
-39 -35 -22 0 -42 -4 -45 -8 -2 -4 -8 -36 -12 -70 l-7 -62 33 0 c25 0 31 -3
26 -16 -3 -9 -6 -24 -6 -34 0 -14 -9 -20 -32 -22 -35 -3 -33 1 -52 -130 l-7
-48 40 0 c43 0 48 -8 35 -57 -6 -21 -12 -23 -85 -23 -69 0 -79 2 -79 18 0 10
16 130 35 267 19 138 35 251 35 253 0 1 36 2 80 2 l80 0 0 -35z"/>
<path d="M2245 2498 c-6 -22 -75 -394 -75 -409 0 -10 11 -14 35 -13 20 1 38 3
40 6 3 3 12 79 20 169 8 90 17 185 20 212 5 43 4 47 -15 47 -11 0 -22 -6 -25
-12z"/>
<path d="M2289 1418 c-12 -44 -53 -381 -47 -390 15 -24 24 9 47 170 12 86 24
172 27 190 5 25 3 32 -10 32 -9 0 -16 -1 -17 -2z"/>
<path d="M1890 1418 c0 -2 -9 -49 -20 -106 -24 -125 -24 -122 -1 -122 16 0 20
10 25 63 4 34 9 86 13 115 3 35 2 52 -6 52 -6 0 -11 -1 -11 -2z"/>
<path d="M2515 1378 c-3 -24 -9 -59 -12 -78 -5 -33 -4 -34 12 -19 19 18 38
100 29 124 -11 27 -22 16 -29 -27z"/>
</g>
</svg>
