<?xml version="1.0" standalone="no"?>
<!DOCTYPE svg PUBLIC "-//W3C//DTD SVG 20010904//EN"
 "http://www.w3.org/TR/2001/REC-SVG-20010904/DTD/svg10.dtd">
<svg version="1.0" xmlns="http://www.w3.org/2000/svg"
 width="980.000000pt" height="718.000000pt" viewBox="0 0 980.000000 718.000000"
 preserveAspectRatio="xMidYMid meet">

<g transform="translate(0.000000,718.000000) scale(0.100000,-0.100000)"
fill="#000000" stroke="none">
<path d="M4660 7152 c-39 -19 -80 -88 -80 -134 0 -56 29 -104 96 -158 192
-156 261 -295 205 -415 -11 -22 -70 -103 -132 -180 -139 -173 -160 -217 -167
-340 -5 -102 16 -232 48 -295 21 -41 75 -112 166 -217 83 -95 97 -124 98 -200
0 -51 -7 -74 -37 -136 -36 -74 -50 -88 -184 -204 -72 -62 -108 -127 -98 -174
17 -75 114 -139 188 -124 103 22 272 161 352 289 24 39 56 107 72 151 24 71
27 94 28 210 0 126 -1 132 -32 198 -32 68 -76 129 -176 247 -137 160 -138 238
-6 389 108 124 155 187 178 240 47 111 51 332 6 444 -51 128 -162 268 -279
351 -108 77 -176 93 -246 58z"/>
<path d="M3705 6182 c-104 -37 -247 -163 -334 -297 -77 -117 -86 -153 -86
-335 1 -220 13 -249 183 -435 124 -136 146 -209 99 -326 -35 -83 -81 -141
-176 -220 -107 -89 -115 -101 -115 -165 2 -96 60 -154 155 -154 126 0 320 173
421 375 50 99 63 154 63 265 0 163 -38 244 -209 449 -103 123 -113 144 -103
236 11 107 90 221 208 301 129 87 143 210 33 286 -53 37 -80 41 -139 20z"/>
<path d="M6316 6185 c-131 -47 -326 -256 -398 -426 -20 -48 -23 -71 -23 -210
l0 -155 37 -75 c21 -43 72 -116 120 -172 135 -160 148 -181 148 -241 0 -137
-57 -229 -217 -349 -103 -78 -127 -161 -71 -243 34 -50 74 -68 140 -62 151 12
378 239 444 441 23 69 27 100 27 197 0 175 -34 254 -190 436 -107 126 -127
167 -120 243 9 101 63 181 203 301 45 38 89 84 98 103 34 73 10 152 -58 191
-55 32 -94 38 -140 21z"/>
<path d="M115 3905 c-71 -25 -124 -111 -111 -180 14 -75 -2 -67 767 -406 454
-200 1408 -610 1565 -673 107 -42 125 -44 184 -13 33 16 51 34 68 67 28 56 28
94 -1 145 -20 35 -36 45 -161 103 -486 222 -2185 952 -2247 966 -13 3 -42 -1
-64 -9z"/>
<path d="M5250 3895 c-111 -27 -250 -106 -324 -183 l-38 -40 -53 23 c-97 44
-318 59 -428 30 -31 -8 -98 -35 -148 -61 l-92 -46 -109 52 c-134 62 -189 73
-343 68 -136 -6 -196 -23 -292 -88 -68 -45 -184 -157 -221 -213 l-26 -39 -71
8 c-38 5 -137 9 -220 9 l-150 0 -45 31 c-167 116 -405 170 -490 112 -70 -49
-92 -151 -46 -219 30 -43 70 -64 165 -84 96 -20 136 -42 224 -124 101 -94 130
-102 240 -71 163 47 240 38 365 -41 82 -52 132 -60 190 -30 52 26 68 49 94
136 61 205 179 306 343 293 80 -7 149 -41 235 -118 135 -120 175 -119 320 5
90 77 138 99 232 103 86 5 138 -13 237 -82 128 -87 220 -69 292 59 45 80 95
131 157 162 49 24 69 28 142 28 107 0 170 -26 235 -96 58 -62 74 -99 91 -217
17 -114 30 -141 84 -171 35 -19 50 -22 93 -17 112 14 197 18 231 12 20 -4 77
-34 126 -68 92 -62 146 -79 204 -64 40 10 88 57 111 111 27 59 97 128 163 158
38 18 66 22 142 22 86 0 100 -3 142 -27 61 -36 123 -108 159 -185 17 -34 45
-75 65 -92 l35 -31 162 7 c151 6 166 4 210 -15 26 -11 80 -53 121 -91 42 -39
87 -76 101 -81 44 -17 108 -11 186 16 123 43 206 25 363 -80 91 -60 126 -66
185 -35 180 95 76 307 -205 420 -74 30 -88 32 -261 39 l-183 7 -52 35 c-110
75 -238 118 -349 118 -32 0 -70 5 -86 11 -15 6 -68 50 -118 98 -108 106 -195
164 -290 194 -57 18 -94 22 -200 22 -181 0 -259 -29 -429 -158 l-78 -60 -87
27 c-48 15 -115 31 -149 36 -34 4 -66 11 -71 14 -5 4 -32 48 -58 99 -68 130
-184 248 -303 306 -138 67 -298 88 -430 56z"/>
<path d="M60 2238 c-49 -53 -65 -108 -57 -198 13 -153 103 -341 226 -473 168
-178 343 -253 618 -264 l142 -6 11 -56 c60 -309 152 -505 343 -729 133 -155
288 -272 502 -377 153 -75 203 -90 373 -107 179 -18 5299 -19 5412 -1 155 25
364 113 526 221 342 230 559 552 634 939 11 57 20 106 20 109 0 2 40 4 89 4
444 0 776 241 877 637 39 153 32 222 -31 299 l-36 44 -4805 0 -4805 0 -39 -42z
m9042 -295 l337 -6 -26 -49 c-15 -27 -57 -78 -95 -113 -123 -116 -174 -132
-491 -149 -314 -17 -305 -10 -338 -241 -34 -232 -96 -403 -209 -570 -64 -94
-180 -214 -270 -277 -85 -60 -255 -144 -327 -163 -110 -28 -241 -35 -878 -46
-787 -13 -4122 -5 -4388 11 -238 14 -310 29 -434 89 -134 65 -209 117 -311
215 -179 171 -292 367 -337 579 -8 38 -15 70 -15 71 0 1 1520 6 3377 10 l3377
6 29 28 c77 73 77 171 -1 255 l-26 27 -2520 1 c-2730 0 -4647 12 -4791 28
-162 19 -179 26 -263 105 -73 69 -132 146 -132 173 0 10 55 13 253 16 553 6
8164 7 8479 0z"/>
</g>
</svg>
