<?xml version="1.0" standalone="no"?><svg xmlns="http://www.w3.org/2000/svg" viewBox="0 0 1440 320"><path fill="#273036" fill-opacity="1" d="M0,320L30,282.7C60,245,120,171,180,138.7C240,107,300,117,360,128C420,139,480,149,540,170.7C600,192,660,224,720,202.7C780,181,840,107,900,101.3C960,96,1020,160,1080,202.7C1140,245,1200,267,1260,266.7C1320,267,1380,245,1410,234.7L1440,224L1440,320L1410,320C1380,320,1320,320,1260,320C1200,320,1140,320,1080,320C1020,320,960,320,900,320C840,320,780,320,720,320C660,320,600,320,540,320C480,320,420,320,360,320C300,320,240,320,180,320C120,320,60,320,30,320L0,320Z"></path></svg>