<?xml version="1.0" standalone="no"?><svg xmlns="http://www.w3.org/2000/svg" viewBox="0 0 1440 320"><path fill="#273036" fill-opacity="0.99" d="M0,0L24,5.3C48,11,96,21,144,42.7C192,64,240,96,288,133.3C336,171,384,213,432,229.3C480,245,528,235,576,234.7C624,235,672,245,720,245.3C768,245,816,235,864,224C912,213,960,203,1008,197.3C1056,192,1104,192,1152,213.3C1200,235,1248,277,1296,282.7C1344,288,1392,256,1416,240L1440,224L1440,320L1416,320C1392,320,1344,320,1296,320C1248,320,1200,320,1152,320C1104,320,1056,320,1008,320C960,320,912,320,864,320C816,320,768,320,720,320C672,320,624,320,576,320C528,320,480,320,432,320C384,320,336,320,288,320C240,320,192,320,144,320C96,320,48,320,24,320L0,320Z"></path></svg>